<?xml version="1.0" encoding="utf-8"?>
<!-- Generator: Adobe Illustrator 26.0.3, SVG Export Plug-In . SVG Version: 6.00 Build 0)  -->
<svg version="1.1" id="Layer_1" xmlns="http://www.w3.org/2000/svg" xmlns:xlink="http://www.w3.org/1999/xlink" x="0px" y="0px"
	 viewBox="0 0 250 250" style="enable-background:new 0 0 250 250;" xml:space="preserve">
<style type="text/css">
	.st0{fill:#1D1D1B;}
</style>
<path class="st0" d="M125.04,149.67c-13.59,0-24.65-11.06-24.65-24.65s11.06-24.65,24.65-24.65s24.65,11.06,24.65,24.65
	S138.63,149.67,125.04,149.67z M125.04,106.51c-10.21,0-18.51,8.3-18.51,18.51s8.3,18.51,18.51,18.51s18.51-8.3,18.51-18.51
	S135.25,106.51,125.04,106.51z"/>
<path class="st0" d="M214.93,101.4c-19.98-6.15-31.76,1.44-38.41,10.16c-3.42-3.38-8.12-5.47-13.3-5.47c-1.22,0-2.43,0.12-3.64,0.36
	c-2.02-3.75-4.64-7.1-7.7-9.99c9.63-5.17,16.04-16.18,15.62-25.48c-0.57-12.53-18.64-20.92-27.08-23.65
	c-8.44-2.74-46.59-8.63-68.46,12.15C50.09,80.26,39.6,89.9,28.68,100.59c-10.91,10.7-23.15,38.93,6.47,48.04
	c19.98,6.15,31.76-1.44,38.41-10.16c3.42,3.38,8.12,5.47,13.29,5.47c1.22,0,2.43-0.12,3.64-0.36c2.02,3.75,4.64,7.1,7.7,9.99
	c-9.63,5.17-16.04,16.18-15.62,25.48c0.57,12.53,18.64,20.92,27.08,23.65c8.44,2.74,46.59,8.63,68.46-12.15
	c21.87-20.78,32.37-30.42,43.28-41.11C232.31,138.75,244.55,110.51,214.93,101.4z M94.92,138.7l-1.16-2.56l-2.65,0.93
	c-1.39,0.49-2.82,0.74-4.24,0.74c-7.05,0-12.79-5.74-12.79-12.79c0-7.05,5.74-12.79,12.79-12.79c1.42,0,2.85,0.25,4.24,0.74
	l2.65,0.93l1.16-2.56c3.32-7.29,9.16-13.13,16.45-16.45l2.56-1.16l-0.93-2.65c-0.49-1.39-0.74-2.82-0.74-4.24
	c0-7.05,5.74-12.79,12.79-12.79c7.05,0,12.79,5.74,12.79,12.79c0,1.42-0.25,2.85-0.74,4.24l-0.93,2.65l2.56,1.16
	c7.29,3.32,13.13,9.16,16.45,16.45l1.16,2.56l2.65-0.93c1.39-0.49,2.82-0.74,4.24-0.74c7.05,0,12.79,5.74,12.79,12.79
	c0,7.05-5.74,12.79-12.79,12.79c-1.42,0-2.85-0.25-4.24-0.74l-2.65-0.93l-1.16,2.56c-3.32,7.29-9.16,13.13-16.45,16.45l-2.56,1.16
	l0.93,2.65c0.49,1.39,0.74,2.82,0.74,4.24c0,7.05-5.74,12.79-12.79,12.79c-7.05,0-12.79-5.74-12.79-12.79
	c0-1.42,0.25-2.85,0.74-4.24l0.93-2.65l-2.56-1.16C104.08,151.83,98.24,145.99,94.92,138.7z"/>
</svg>
