<?xml version="1.0" encoding="utf-8"?>
<!-- Generator: Adobe Illustrator 26.0.3, SVG Export Plug-In . SVG Version: 6.00 Build 0)  -->
<svg version="1.1" xmlns="http://www.w3.org/2000/svg" xmlns:xlink="http://www.w3.org/1999/xlink" x="0px" y="0px"
	 viewBox="0 0 500 250" style="enable-background:new 0 0 500 250;" xml:space="preserve">
<style type="text/css">
	.st0{fill:#2D2D2B;}
	.st1{fill:#1D1D1B;}
	.st2{display:none;}
	.st3{display:inline;}
	.st4{fill:#C6C6C5;}
	.st5{fill:#575756;}
	.st6{fill:#FFFFFF;}
</style>
<g id="Positif">
	<g>
		<g>
			<path class="st0" d="M52.13,226.83c-3.49-1.96-6.24-4.64-8.24-8.05c-2-3.41-3-7.22-3-11.43s1-8.02,3-11.43
				c2-3.41,4.75-6.1,8.24-8.05s7.41-2.94,11.75-2.94s8.25,0.97,11.75,2.91c3.49,1.94,6.24,4.61,8.24,8.02c2,3.41,3,7.24,3,11.5
				s-1,8.09-3,11.5c-2,3.41-4.75,6.09-8.24,8.02c-3.5,1.94-7.41,2.91-11.75,2.91S55.62,228.79,52.13,226.83z M73.92,224.28
				c2.99-1.68,5.35-4.01,7.07-6.98c1.73-2.97,2.59-6.28,2.59-9.95s-0.86-6.98-2.59-9.95c-1.73-2.97-4.08-5.3-7.07-6.98
				c-2.99-1.68-6.34-2.53-10.04-2.53c-3.71,0-7.06,0.84-10.08,2.53c-3.01,1.68-5.38,4.01-7.11,6.98c-1.73,2.97-2.59,6.28-2.59,9.95
				s0.86,6.98,2.59,9.95c1.72,2.97,4.09,5.3,7.11,6.98c3.01,1.68,6.37,2.53,10.08,2.53C67.58,226.8,70.93,225.96,73.92,224.28z"/>
			<path class="st0" d="M121.93,198.35c2.48,1.41,4.43,3.39,5.84,5.94s2.12,5.44,2.12,8.68c0,3.24-0.71,6.13-2.12,8.65
				c-1.41,2.53-3.36,4.51-5.84,5.94c-2.49,1.43-5.26,2.15-8.34,2.15c-2.95,0-5.61-0.71-7.99-2.12c-2.38-1.41-4.22-3.38-5.53-5.91
				v7.77h-3.03v-46.87h3.16V204c1.31-2.44,3.14-4.35,5.5-5.72c2.36-1.37,4.99-2.05,7.9-2.05
				C116.66,196.23,119.44,196.94,121.93,198.35z M120.22,225.1c2.02-1.18,3.61-2.82,4.77-4.93c1.16-2.11,1.74-4.5,1.74-7.2
				c0-2.69-0.58-5.09-1.74-7.2c-1.16-2.11-2.75-3.75-4.77-4.93c-2.02-1.18-4.3-1.77-6.82-1.77c-2.53,0-4.79,0.59-6.79,1.77
				c-2,1.18-3.58,2.82-4.74,4.93c-1.16,2.11-1.74,4.51-1.74,7.2c0,2.7,0.58,5.1,1.74,7.2c1.16,2.11,2.74,3.75,4.74,4.93
				c2,1.18,4.26,1.77,6.79,1.77C115.92,226.87,118.2,226.28,120.22,225.1z"/>
			<path class="st0" d="M130.36,241.39c-1.2-0.38-2.18-0.93-2.94-1.64l1.26-2.34c1.35,1.22,3.14,1.83,5.37,1.83
				c1.94,0,3.41-0.57,4.42-1.71c1.01-1.14,1.52-2.78,1.52-4.93v-36.13h3.16v36.26c0,2.82-0.78,5.06-2.34,6.73
				c-1.56,1.66-3.75,2.49-6.57,2.49C132.85,241.96,131.56,241.77,130.36,241.39z M139.74,187.73c-0.51-0.48-0.76-1.08-0.76-1.8
				c0-0.72,0.25-1.33,0.76-1.83c0.51-0.51,1.12-0.76,1.83-0.76c0.72,0,1.33,0.24,1.83,0.73c0.51,0.49,0.76,1.09,0.76,1.8
				c0,0.72-0.25,1.33-0.76,1.83s-1.12,0.76-1.83,0.76C140.85,188.46,140.24,188.22,139.74,187.73z"/>
			<path class="st0" d="M184.33,213.73h-28.36c0.08,2.57,0.74,4.85,1.96,6.85c1.22,2,2.87,3.55,4.96,4.64
				c2.08,1.1,4.43,1.64,7.04,1.64c2.15,0,4.14-0.39,5.97-1.17c1.83-0.78,3.36-1.93,4.58-3.44l1.83,2.08
				c-1.43,1.73-3.23,3.05-5.4,3.98c-2.17,0.93-4.52,1.39-7.04,1.39c-3.29,0-6.21-0.72-8.78-2.15c-2.57-1.43-4.58-3.41-6.03-5.94
				c-1.45-2.53-2.18-5.41-2.18-8.65c0-3.2,0.68-6.07,2.05-8.62c1.37-2.55,3.25-4.54,5.65-5.97c2.4-1.43,5.09-2.15,8.09-2.15
				c2.99,0,5.67,0.71,8.05,2.12c2.38,1.41,4.25,3.38,5.62,5.91c1.37,2.53,2.05,5.39,2.05,8.59L184.33,213.73z M162.41,200.56
				c-1.85,1.03-3.34,2.48-4.45,4.36c-1.12,1.87-1.76,3.99-1.93,6.35h25.27c-0.13-2.36-0.76-4.46-1.89-6.32
				c-1.14-1.85-2.63-3.3-4.49-4.36c-1.85-1.05-3.94-1.58-6.25-1.58C166.35,199.01,164.27,199.52,162.41,200.56z"/>
			<path class="st0" d="M210.55,227.37c-0.8,0.76-1.8,1.34-3,1.74c-1.2,0.4-2.45,0.6-3.76,0.6c-2.87,0-5.08-0.79-6.63-2.37
				c-1.56-1.58-2.34-3.78-2.34-6.6V199.2h-6.07v-2.72h6.07v-7.2h3.16v7.2h10.49v2.72h-10.49v21.22c0,2.15,0.52,3.78,1.55,4.89
				c1.03,1.12,2.56,1.67,4.58,1.67c2.06,0,3.77-0.61,5.12-1.83L210.55,227.37z"/>
		</g>
		<g>
			<path class="st0" d="M238.49,193.58h-14.15v-8.34h38.53v8.34h-14.15v35.88h-10.23V193.58z"/>
			<path class="st0" d="M297.3,215.24h-25.71c0.46,2.11,1.56,3.77,3.29,4.99c1.73,1.22,3.87,1.83,6.44,1.83
				c1.77,0,3.34-0.26,4.71-0.79c1.37-0.53,2.64-1.36,3.82-2.5l5.24,5.68c-3.2,3.66-7.88,5.5-14.02,5.5c-3.83,0-7.22-0.75-10.17-2.24
				c-2.95-1.49-5.22-3.57-6.82-6.22c-1.6-2.65-2.4-5.66-2.4-9.03c0-3.33,0.79-6.33,2.37-9c1.58-2.67,3.75-4.76,6.51-6.25
				c2.76-1.49,5.84-2.24,9.25-2.24c3.33,0,6.34,0.72,9.03,2.15c2.69,1.43,4.81,3.48,6.35,6.16c1.54,2.68,2.3,5.78,2.3,9.32
				C297.48,212.72,297.42,213.6,297.3,215.24z M274.24,204.31c-1.52,1.26-2.44,2.99-2.78,5.18h16.74c-0.34-2.15-1.26-3.86-2.78-5.15
				c-1.52-1.28-3.37-1.93-5.56-1.93C277.63,202.42,275.76,203.05,274.24,204.31z M282.39,182.02H293l-11.43,9.1h-7.71L282.39,182.02
				z"/>
			<path class="st0" d="M357.71,198.72c2.5,2.51,3.76,6.26,3.76,11.27v19.46h-9.86v-17.94c0-2.69-0.56-4.71-1.67-6.03
				c-1.12-1.33-2.71-1.99-4.77-1.99c-2.32,0-4.15,0.75-5.5,2.24c-1.35,1.5-2.02,3.72-2.02,6.66v17.05h-9.86v-17.94
				c0-5.35-2.15-8.02-6.44-8.02c-2.27,0-4.09,0.75-5.43,2.24c-1.35,1.5-2.02,3.72-2.02,6.66v17.05h-9.86v-33.98h9.41v3.92
				c1.26-1.43,2.81-2.53,4.64-3.29c1.83-0.76,3.84-1.14,6.03-1.14c2.4,0,4.57,0.47,6.51,1.42c1.94,0.95,3.49,2.33,4.67,4.14
				c1.39-1.77,3.15-3.14,5.27-4.11c2.13-0.97,4.45-1.45,6.98-1.45C351.83,194.97,355.21,196.22,357.71,198.72z"/>
			<path class="st0" d="M377.23,227.72c-2.84-1.49-5.06-3.57-6.66-6.22c-1.6-2.65-2.4-5.66-2.4-9.03c0-3.37,0.8-6.38,2.4-9.03
				c1.6-2.65,3.82-4.73,6.66-6.22c2.84-1.49,6.05-2.24,9.63-2.24c3.58,0,6.78,0.75,9.6,2.24c2.82,1.5,5.03,3.57,6.63,6.22
				c1.6,2.65,2.4,5.66,2.4,9.03c0,3.37-0.8,6.38-2.4,9.03c-1.6,2.65-3.81,4.73-6.63,6.22c-2.82,1.5-6.02,2.24-9.6,2.24
				C383.28,229.96,380.07,229.21,377.23,227.72z M393.09,219.32c1.62-1.71,2.43-3.99,2.43-6.85c0-2.86-0.81-5.15-2.43-6.85
				c-1.62-1.71-3.7-2.56-6.22-2.56c-2.53,0-4.61,0.85-6.25,2.56c-1.64,1.71-2.46,3.99-2.46,6.85c0,2.86,0.82,5.15,2.46,6.85
				c1.64,1.71,3.73,2.56,6.25,2.56C389.39,221.87,391.47,221.02,393.09,219.32z"/>
			<path class="st0" d="M412.57,189.15c-1.14-1.05-1.71-2.36-1.71-3.92c0-1.56,0.57-2.86,1.71-3.92c1.14-1.05,2.61-1.58,4.42-1.58
				c1.81,0,3.29,0.51,4.42,1.52c1.14,1.01,1.71,2.27,1.71,3.79c0,1.64-0.57,3-1.71,4.07c-1.14,1.07-2.61,1.61-4.42,1.61
				C415.19,190.73,413.71,190.21,412.57,189.15z M412.07,195.47h9.86v33.98h-9.86V195.47z"/>
			<path class="st0" d="M461.94,198.76c2.59,2.53,3.88,6.27,3.88,11.24v19.46h-9.85v-17.94c0-2.69-0.59-4.71-1.77-6.03
				c-1.18-1.33-2.88-1.99-5.12-1.99c-2.48,0-4.46,0.77-5.94,2.3c-1.47,1.54-2.21,3.82-2.21,6.85v16.8h-9.85v-33.98h9.41v3.98
				c1.31-1.43,2.93-2.54,4.86-3.32c1.94-0.78,4.06-1.17,6.38-1.17C455.95,194.97,459.35,196.23,461.94,198.76z"/>
		</g>
	</g>
	<path class="st1" d="M253.79,110.09c-13.59,0-24.65-11.06-24.65-24.65s11.06-24.65,24.65-24.65c13.59,0,24.65,11.06,24.65,24.65
		S267.39,110.09,253.79,110.09z M253.79,66.93c-10.21,0-18.51,8.3-18.51,18.51s8.3,18.51,18.51,18.51c10.21,0,18.51-8.3,18.51-18.51
		S264,66.93,253.79,66.93z"/>
	<path class="st1" d="M343.68,61.82c-19.98-6.15-31.76,1.44-38.41,10.16c-3.42-3.38-8.12-5.47-13.3-5.47
		c-1.22,0-2.43,0.12-3.64,0.36c-2.02-3.75-4.64-7.1-7.7-9.99c9.63-5.17,16.04-16.18,15.62-25.48
		c-0.57-12.53-18.64-20.92-27.08-23.65c-8.44-2.74-46.59-8.63-68.46,12.15c-21.87,20.78-32.36,30.42-43.28,41.11
		c-10.91,10.7-23.15,38.93,6.47,48.04c19.98,6.15,31.76-1.44,38.41-10.16c3.42,3.38,8.12,5.47,13.29,5.47
		c1.22,0,2.43-0.12,3.64-0.36c2.02,3.75,4.64,7.1,7.7,9.99c-9.63,5.17-16.04,16.18-15.62,25.48c0.57,12.53,18.64,20.92,27.08,23.65
		c8.44,2.74,46.59,8.63,68.46-12.15c21.87-20.78,32.37-30.42,43.28-41.11C361.06,99.17,373.3,70.94,343.68,61.82z M223.67,99.12
		l-1.16-2.56l-2.65,0.93c-1.39,0.49-2.82,0.74-4.24,0.74c-7.05,0-12.79-5.74-12.79-12.79s5.74-12.79,12.79-12.79
		c1.42,0,2.85,0.25,4.24,0.74l2.65,0.93l1.16-2.56c3.32-7.29,9.16-13.13,16.45-16.45l2.56-1.16l-0.93-2.65
		c-0.49-1.39-0.74-2.82-0.74-4.24c0-7.05,5.74-12.79,12.79-12.79s12.79,5.74,12.79,12.79c0,1.42-0.25,2.85-0.74,4.24l-0.93,2.65
		l2.56,1.16c7.29,3.32,13.13,9.16,16.45,16.45l1.16,2.56l2.65-0.93c1.39-0.49,2.82-0.74,4.24-0.74c7.05,0,12.79,5.74,12.79,12.79
		s-5.74,12.79-12.79,12.79c-1.42,0-2.85-0.25-4.24-0.74l-2.65-0.93l-1.16,2.56c-3.32,7.29-9.16,13.13-16.45,16.45l-2.56,1.16
		l0.93,2.65c0.49,1.39,0.74,2.82,0.74,4.24c0,7.05-5.74,12.79-12.79,12.79S241,130.68,241,123.62c0-1.42,0.25-2.85,0.74-4.24
		l0.93-2.65l-2.56-1.16C232.83,112.25,226.99,106.41,223.67,99.12z"/>
</g>
<g id="Negatif" class="st2">
	<g class="st3">
		<g>
			<g>
				<path class="st4" d="M52.13,226.83c-3.49-1.96-6.24-4.64-8.24-8.05c-2-3.41-3-7.22-3-11.43s1-8.02,3-11.43
					c2-3.41,4.75-6.1,8.24-8.05c3.49-1.96,7.41-2.94,11.75-2.94s8.25,0.97,11.75,2.91c3.49,1.94,6.24,4.61,8.24,8.02
					c2,3.41,3,7.24,3,11.5s-1,8.09-3,11.5c-2,3.41-4.75,6.09-8.24,8.02c-3.5,1.94-7.41,2.91-11.75,2.91S55.62,228.79,52.13,226.83z
					 M73.92,224.28c2.99-1.68,5.35-4.01,7.07-6.98c1.73-2.97,2.59-6.28,2.59-9.95s-0.86-6.98-2.59-9.95
					c-1.73-2.97-4.08-5.3-7.07-6.98c-2.99-1.68-6.34-2.53-10.04-2.53c-3.71,0-7.06,0.84-10.08,2.53c-3.01,1.68-5.38,4.01-7.11,6.98
					c-1.73,2.97-2.59,6.28-2.59,9.95s0.86,6.98,2.59,9.95c1.72,2.97,4.09,5.3,7.11,6.98s6.37,2.53,10.08,2.53
					C67.58,226.8,70.93,225.96,73.92,224.28z"/>
				<path class="st4" d="M121.93,198.35c2.48,1.41,4.43,3.39,5.84,5.94s2.12,5.44,2.12,8.68c0,3.24-0.71,6.13-2.12,8.65
					c-1.41,2.53-3.36,4.51-5.84,5.94c-2.49,1.43-5.26,2.15-8.34,2.15c-2.95,0-5.61-0.71-7.99-2.12c-2.38-1.41-4.22-3.38-5.53-5.91
					v7.77h-3.03v-46.87h3.16V204c1.31-2.44,3.14-4.35,5.5-5.72c2.36-1.37,4.99-2.05,7.9-2.05
					C116.66,196.23,119.44,196.94,121.93,198.35z M120.22,225.1c2.02-1.18,3.61-2.82,4.77-4.93c1.16-2.11,1.74-4.5,1.74-7.2
					c0-2.69-0.58-5.09-1.74-7.2c-1.16-2.11-2.75-3.75-4.77-4.93c-2.02-1.18-4.3-1.77-6.82-1.77c-2.53,0-4.79,0.59-6.79,1.77
					c-2,1.18-3.58,2.82-4.74,4.93c-1.16,2.11-1.74,4.51-1.74,7.2c0,2.7,0.58,5.1,1.74,7.2c1.16,2.11,2.74,3.75,4.74,4.93
					c2,1.18,4.26,1.77,6.79,1.77C115.92,226.87,118.2,226.28,120.22,225.1z"/>
				<path class="st4" d="M130.36,241.39c-1.2-0.38-2.18-0.93-2.94-1.64l1.26-2.34c1.35,1.22,3.14,1.83,5.37,1.83
					c1.94,0,3.41-0.57,4.42-1.71c1.01-1.14,1.52-2.78,1.52-4.93v-36.13h3.16v36.26c0,2.82-0.78,5.06-2.34,6.73
					c-1.56,1.66-3.75,2.49-6.57,2.49C132.85,241.96,131.56,241.77,130.36,241.39z M139.74,187.73c-0.51-0.48-0.76-1.08-0.76-1.8
					c0-0.72,0.25-1.33,0.76-1.83s1.12-0.76,1.83-0.76c0.72,0,1.33,0.24,1.83,0.73c0.51,0.49,0.76,1.09,0.76,1.8
					c0,0.72-0.25,1.33-0.76,1.83s-1.12,0.76-1.83,0.76C140.85,188.46,140.24,188.22,139.74,187.73z"/>
				<path class="st4" d="M184.33,213.73h-28.36c0.08,2.57,0.74,4.85,1.96,6.85c1.22,2,2.87,3.55,4.96,4.64
					c2.08,1.1,4.43,1.64,7.04,1.64c2.15,0,4.14-0.39,5.97-1.17c1.83-0.78,3.36-1.93,4.58-3.44l1.83,2.08
					c-1.43,1.73-3.23,3.05-5.4,3.98c-2.17,0.93-4.52,1.39-7.04,1.39c-3.29,0-6.21-0.72-8.78-2.15c-2.57-1.43-4.58-3.41-6.03-5.94
					c-1.45-2.53-2.18-5.41-2.18-8.65c0-3.2,0.68-6.07,2.05-8.62c1.37-2.55,3.25-4.54,5.65-5.97c2.4-1.43,5.09-2.15,8.09-2.15
					c2.99,0,5.67,0.71,8.05,2.12c2.38,1.41,4.25,3.38,5.62,5.91c1.37,2.53,2.05,5.39,2.05,8.59L184.33,213.73z M162.41,200.56
					c-1.85,1.03-3.34,2.48-4.45,4.36c-1.12,1.87-1.76,3.99-1.93,6.35h25.27c-0.13-2.36-0.76-4.46-1.89-6.32
					c-1.14-1.85-2.63-3.3-4.49-4.36c-1.85-1.05-3.94-1.58-6.25-1.58C166.35,199.01,164.27,199.52,162.41,200.56z"/>
				<path class="st4" d="M210.55,227.37c-0.8,0.76-1.8,1.34-3,1.74c-1.2,0.4-2.45,0.6-3.76,0.6c-2.87,0-5.08-0.79-6.63-2.37
					c-1.56-1.58-2.34-3.78-2.34-6.6V199.2h-6.07v-2.72h6.07v-7.2h3.16v7.2h10.49v2.72h-10.49v21.22c0,2.15,0.52,3.78,1.55,4.89
					c1.03,1.12,2.56,1.67,4.58,1.67c2.06,0,3.77-0.61,5.12-1.83L210.55,227.37z"/>
			</g>
			<g>
				<path class="st4" d="M238.49,193.58h-14.15v-8.34h38.53v8.34h-14.15v35.88h-10.23V193.58z"/>
				<path class="st4" d="M297.3,215.24h-25.71c0.46,2.11,1.56,3.77,3.29,4.99c1.73,1.22,3.87,1.83,6.44,1.83
					c1.77,0,3.34-0.26,4.71-0.79s2.64-1.36,3.82-2.5l5.24,5.68c-3.2,3.66-7.88,5.5-14.02,5.5c-3.83,0-7.22-0.75-10.17-2.24
					c-2.95-1.49-5.22-3.57-6.82-6.22c-1.6-2.65-2.4-5.66-2.4-9.03c0-3.33,0.79-6.33,2.37-9c1.58-2.67,3.75-4.76,6.51-6.25
					c2.76-1.49,5.84-2.24,9.25-2.24c3.33,0,6.34,0.72,9.03,2.15c2.69,1.43,4.81,3.48,6.35,6.16c1.54,2.68,2.3,5.78,2.3,9.32
					C297.48,212.72,297.42,213.6,297.3,215.24z M274.24,204.31c-1.52,1.26-2.44,2.99-2.78,5.18h16.74
					c-0.34-2.15-1.26-3.86-2.78-5.15c-1.52-1.28-3.37-1.93-5.56-1.93C277.63,202.42,275.76,203.05,274.24,204.31z M282.39,182.02
					H293l-11.43,9.1h-7.71L282.39,182.02z"/>
				<path class="st4" d="M357.71,198.72c2.5,2.51,3.76,6.26,3.76,11.27v19.46h-9.86v-17.94c0-2.69-0.56-4.71-1.67-6.03
					c-1.12-1.33-2.71-1.99-4.77-1.99c-2.32,0-4.15,0.75-5.5,2.24c-1.35,1.5-2.02,3.72-2.02,6.66v17.05h-9.86v-17.94
					c0-5.35-2.15-8.02-6.44-8.02c-2.27,0-4.09,0.75-5.43,2.24c-1.35,1.5-2.02,3.72-2.02,6.66v17.05h-9.86v-33.98h9.41v3.92
					c1.26-1.43,2.81-2.53,4.64-3.29c1.83-0.76,3.84-1.14,6.03-1.14c2.4,0,4.57,0.47,6.51,1.42c1.94,0.95,3.49,2.33,4.67,4.14
					c1.39-1.77,3.15-3.14,5.27-4.11c2.13-0.97,4.45-1.45,6.98-1.45C351.83,194.97,355.21,196.22,357.71,198.72z"/>
				<path class="st4" d="M377.23,227.72c-2.84-1.49-5.06-3.57-6.66-6.22c-1.6-2.65-2.4-5.66-2.4-9.03c0-3.37,0.8-6.38,2.4-9.03
					c1.6-2.65,3.82-4.73,6.66-6.22c2.84-1.49,6.05-2.24,9.63-2.24c3.58,0,6.78,0.75,9.6,2.24c2.82,1.5,5.03,3.57,6.63,6.22
					c1.6,2.65,2.4,5.66,2.4,9.03c0,3.37-0.8,6.38-2.4,9.03c-1.6,2.65-3.81,4.73-6.63,6.22c-2.82,1.5-6.02,2.24-9.6,2.24
					C383.28,229.96,380.07,229.21,377.23,227.72z M393.09,219.32c1.62-1.71,2.43-3.99,2.43-6.85c0-2.86-0.81-5.15-2.43-6.85
					c-1.62-1.71-3.7-2.56-6.22-2.56s-4.61,0.85-6.25,2.56c-1.64,1.71-2.46,3.99-2.46,6.85c0,2.86,0.82,5.15,2.46,6.85
					c1.64,1.71,3.73,2.56,6.25,2.56S391.47,221.02,393.09,219.32z"/>
				<path class="st4" d="M412.57,189.15c-1.14-1.05-1.71-2.36-1.71-3.92c0-1.56,0.57-2.86,1.71-3.92c1.14-1.05,2.61-1.58,4.42-1.58
					s3.29,0.51,4.42,1.52c1.14,1.01,1.71,2.27,1.71,3.79c0,1.64-0.57,3-1.71,4.07c-1.14,1.07-2.61,1.61-4.42,1.61
					S413.71,190.21,412.57,189.15z M412.07,195.47h9.86v33.98h-9.86V195.47z"/>
				<path class="st4" d="M461.94,198.76c2.59,2.53,3.88,6.27,3.88,11.24v19.46h-9.85v-17.94c0-2.69-0.59-4.71-1.77-6.03
					c-1.18-1.33-2.88-1.99-5.12-1.99c-2.48,0-4.46,0.77-5.94,2.3c-1.47,1.54-2.21,3.82-2.21,6.85v16.8h-9.85v-33.98h9.41v3.98
					c1.31-1.43,2.93-2.54,4.86-3.32c1.94-0.78,4.06-1.17,6.38-1.17C455.95,194.97,459.35,196.23,461.94,198.76z"/>
			</g>
		</g>
		<g>
			<path class="st5" d="M157.44,61.02c10.91-10.7,21.41-20.33,43.28-41.11s60.02-14.89,68.46-12.15
				c8.44,2.74,26.51,11.12,27.08,23.65c0.57,12.53-11.24,28.19-26.63,28.46c-15.39,0.27-57.37,16.82-60.92,27.04
				c-3.55,10.21-15.17,31.28-44.79,22.16S146.53,71.71,157.44,61.02z"/>
			<path class="st5" d="M350.15,109.87c-10.91,10.7-21.41,20.33-43.28,41.11s-60.02,14.89-68.46,12.15
				c-8.44-2.74-26.51-11.12-27.08-23.65c-0.57-12.53,11.24-28.19,26.63-28.46s57.37-16.82,60.92-27.04s15.17-31.28,44.79-22.16
				C373.3,70.94,361.06,99.17,350.15,109.87z"/>
		</g>
		<path class="st6" d="M291.98,69.58c-1.85,0-3.61,0.33-5.26,0.91c-3.62-7.95-10.02-14.35-17.97-17.97
			c0.58-1.65,0.91-3.42,0.91-5.26c0-8.76-7.1-15.86-15.86-15.86s-15.86,7.1-15.86,15.86c0,1.85,0.33,3.61,0.91,5.26
			c-7.95,3.62-14.35,10.02-17.97,17.97c-1.65-0.58-3.42-0.91-5.26-0.91c-8.76,0-15.86,7.1-15.86,15.86c0,8.76,7.1,15.86,15.86,15.86
			c1.85,0,3.61-0.33,5.26-0.91c3.62,7.95,10.02,14.35,17.97,17.97c-0.58,1.65-0.91,3.42-0.91,5.26c0,8.76,7.1,15.86,15.86,15.86
			c8.76,0,15.86-7.1,15.86-15.86c0-1.85-0.33-3.61-0.91-5.26c7.95-3.62,14.35-10.02,17.97-17.97c1.65,0.58,3.42,0.91,5.26,0.91
			c8.76,0,15.86-7.1,15.86-15.86C307.84,76.68,300.74,69.58,291.98,69.58z"/>
		<path class="st1" d="M253.79,142.56c-10.44,0-18.93-8.49-18.93-18.93c0-1.22,0.12-2.43,0.36-3.64
			c-6.77-3.65-12.33-9.2-15.97-15.97c-1.2,0.24-2.42,0.36-3.64,0.36c-10.44,0-18.93-8.49-18.93-18.93s8.49-18.93,18.93-18.93
			c1.22,0,2.43,0.12,3.64,0.36c3.65-6.77,9.2-12.33,15.97-15.97c-0.24-1.2-0.36-2.42-0.36-3.64c0-10.44,8.49-18.93,18.93-18.93
			c10.44,0,18.93,8.49,18.93,18.93c0,1.22-0.12,2.43-0.36,3.64c6.77,3.65,12.33,9.2,15.98,15.97c1.2-0.24,2.42-0.36,3.64-0.36
			c10.44,0,18.93,8.49,18.93,18.93s-8.49,18.93-18.93,18.93c-1.22,0-2.43-0.12-3.64-0.36c-3.65,6.77-9.2,12.33-15.97,15.97
			c0.24,1.2,0.36,2.42,0.36,3.64C272.73,134.06,264.23,142.56,253.79,142.56z M222.51,96.56l1.16,2.56
			c3.32,7.29,9.16,13.13,16.45,16.45l2.56,1.16l-0.93,2.65c-0.49,1.39-0.74,2.82-0.74,4.24c0,7.05,5.74,12.79,12.79,12.79
			c7.05,0,12.79-5.74,12.79-12.79c0-1.43-0.25-2.85-0.74-4.24l-0.93-2.65l2.56-1.16c7.29-3.32,13.13-9.16,16.45-16.45l1.16-2.56
			l2.65,0.93c1.39,0.49,2.82,0.74,4.24,0.74c7.05,0,12.79-5.74,12.79-12.79s-5.74-12.79-12.79-12.79c-1.42,0-2.85,0.25-4.24,0.74
			l-2.65,0.93l-1.16-2.56c-3.32-7.29-9.16-13.13-16.45-16.45l-2.56-1.16l0.93-2.65c0.49-1.39,0.74-2.82,0.74-4.24
			c0-7.05-5.74-12.79-12.79-12.79c-7.05,0-12.79,5.74-12.79,12.79c0,1.43,0.25,2.85,0.74,4.24l0.93,2.65l-2.56,1.16
			c-7.29,3.32-13.13,9.16-16.45,16.45l-1.16,2.56l-2.65-0.93c-1.39-0.49-2.82-0.74-4.24-0.74c-7.05,0-12.79,5.74-12.79,12.79
			s5.74,12.79,12.79,12.79c1.42,0,2.85-0.25,4.24-0.74L222.51,96.56z"/>
		<path class="st1" d="M253.79,110.09c-13.59,0-24.65-11.06-24.65-24.65s11.06-24.65,24.65-24.65c13.59,0,24.65,11.06,24.65,24.65
			S267.39,110.09,253.79,110.09z M253.79,66.93c-10.21,0-18.51,8.3-18.51,18.51s8.3,18.51,18.51,18.51
			c10.21,0,18.51-8.3,18.51-18.51S264,66.93,253.79,66.93z"/>
	</g>
</g>
</svg>
